# xmcd CD database file
#
# Track frame offsets:
#	183
#	19648
#	42449
#	64043
#	83482
#	110435
#	126814
#	144902
#	159829
#	172657
#	192941
#	208574
#	224977
#
# Disc length: 3214 seconds
#
# Revision: 0
# Processed by: cddbd v1.5.1PL0 Copyright (c) Steve Scherf et al.
# Submitted via: CDex 1.51
#
DISCID=aa0c8c0d
DTITLE=Ray Lema - Un musicien de légende
DYEAR=1900
DGENRE=Jazz
TTITLE0=Green light
TTITLE1=Stop time
TTITLE2=Partage
TTITLE3=N'Totila
TTITLE4=Mathissou
TTITLE5=Repos
TTITLE6=Lusala
TTITLE7=Pongi
TTITLE8=Soma loba
TTITLE9=Deli laba
TTITLE10=Tato wa biso
TTITLE11=N'Zola
TTITLE12=Post scriptum
EXTD=
EXTT0=
EXTT1=
EXTT2=
EXTT3=
EXTT4=
EXTT5=
EXTT6=
EXTT7=
EXTT8=
EXTT9=
EXTT10=
EXTT11=
EXTT12=
PLAYORDER=
